<svg xmlns="http://www.w3.org/2000/svg" xmlns:xlink="http://www.w3.org/1999/xlink" xmlns:lucid="lucid" width="1530.08" height="980"><g transform="translate(-180 -200)" lucid:page-tab-id="0_0"><path d="M320 228c0-4.42 3.58-8 8-8h174.08c4.4 0 8 3.58 8 8v106c0 4.42-3.6 8-8 8H328c-4.42 0-8-3.58-8-8z" stroke="#333" fill="#ffeca9"/><use xlink:href="#a" transform="matrix(1,0,0,1,328,228) translate(13.574074074074062 56.55555555555555)"/><use xlink:href="#b" transform="matrix(1,0,0,1,328,228) translate(66.80864197530863 56.55555555555555)"/><use xlink:href="#c" transform="matrix(1,0,0,1,328,228) translate(76.68518518518518 56.55555555555555)"/><path d="M1500 330c0-4.42 3.58-8 8-8h174.08c4.4 0 8 3.58 8 8v126c0 4.42-3.6 8-8 8H1508c-4.42 0-8-3.58-8-8z" stroke="#000" stroke-opacity="0" fill="#ffbbb1"/><use xlink:href="#d" transform="matrix(1,0,0,1,1508.0000000000002,330) translate(39.4753086419753 66.55555555555556)"/><use xlink:href="#e" transform="matrix(1,0,0,1,1508.0000000000002,330) translate(97.69753086419753 66.55555555555556)"/><path d="M620 330c0-4.42 3.58-8 8-8h184c4.42 0 8 3.58 8 8v128c0 4.42-3.58 8-8 8H628c-4.42 0-8-3.58-8-8z" stroke="#000" stroke-opacity="0" fill="#b2d6ef"/><use xlink:href="#f" transform="matrix(1,0,0,1,628.0000000000001,330) translate(6.691358024691354 56.888888888888886)"/><use xlink:href="#g" transform="matrix(1,0,0,1,628.0000000000001,330) translate(172.37037037037038 56.888888888888886)"/><use xlink:href="#h" transform="matrix(1,0,0,1,628.0000000000001,330) translate(19.01234567901234 78.22222222222223)"/><path d="M840 328c0-4.42 3.58-8 8-8h184c4.42 0 8 3.58 8 8v128c0 4.42-3.58 8-8 8H848c-4.42 0-8-3.58-8-8z" stroke="#000" stroke-opacity="0" fill="#b2d6ef"/><use xlink:href="#i" transform="matrix(1,0,0,1,848.0000000000002,328) translate(17.037037037037024 56.888888888888886)"/><use xlink:href="#g" transform="matrix(1,0,0,1,848.0000000000002,328) translate(162.0246913580247 56.888888888888886)"/><use xlink:href="#j" transform="matrix(1,0,0,1,848.0000000000002,328) translate(34.296296296296276 78.22222222222223)"/><path d="M1060 328c0-4.42 3.58-8 8-8h184c4.42 0 8 3.58 8 8v128c0 4.42-3.58 8-8 8h-184c-4.42 0-8-3.58-8-8z" stroke="#000" stroke-opacity="0" fill="#b2d6ef"/><use xlink:href="#k" transform="matrix(1,0,0,1,1068,328) translate(-6.148148148148138 56.888888888888886)"/><use xlink:href="#b" transform="matrix(1,0,0,1,1068,328) translate(1.234567901234584 78.22222222222223)"/><use xlink:href="#l" transform="matrix(1,0,0,1,1068,328) translate(11.111111111111128 78.22222222222223)"/><path d="M1280 328c0-4.42 3.58-8 8-8h184c4.42 0 8 3.58 8 8v128c0 4.42-3.58 8-8 8h-184c-4.42 0-8-3.58-8-8z" stroke="#000" stroke-opacity="0" fill="#b2d6ef"/><use xlink:href="#m" transform="matrix(1,0,0,1,1288,328) translate(8.666666666666643 56.888888888888886)"/><use xlink:href="#g" transform="matrix(1,0,0,1,1288,328) translate(170.3950617283951 56.888888888888886)"/><use xlink:href="#n" transform="matrix(1,0,0,1,1288,328) translate(25.925925925925924 78.22222222222223)"/><path d="M720 466.5v10.13m0 10.14v20.26m0 10.13v20.27m0 10.13v20.27m0 10.13v20.26m0 10.14v20.26m0 10.13v20.27m0 10.13v20.27m0 10.13v20.26m0 10.15v20.26m0 10.14v20.27m0 10.14V811m0 10.14v20.26m0 10.14v20.26m0 10.13v20.27m0 10.13v20.27m0 10.13V963m0 10.13v20.26m0 10.12v20.27m0 10.12v20.27m0 10.12v20.26m0 10.14v20.26m0 10.13v10.15" stroke="#333" fill="none"/><path d="M720.5 466.5h-1v-.5h1z" fill="#333"/><path d="M720 1135.23v.52M940 464.5v9.78m0 9.8v19.55m0 9.78V533m0 9.78v19.57m0 9.78v19.57m0 9.8V621m0 9.78v19.57m0 9.78v19.57m0 9.78v19.57m0 9.78v19.56m0 9.8v19.56m0 9.78v19.57m0 9.8v19.56m0 9.78v19.56m0 9.8v19.55m0 9.78v19.57m0 9.78v19.57m0 9.78v19.57m0 9.78v19.56m0 9.8v19.55m0 9.77v19.57m0 9.78v19.57m0 9.77v19.56m0 9.8v9.77" stroke="#333" fill="none"/><path d="M940.5 464.5h-1v-.5h1z" fill="#333"/><path d="M940 1139.5v.5M1160 1040.5v11m0 11v22m0 11v22m0 11v11" stroke="#333" fill="none"/><path d="M1160 1040.5h-.5v-3.5h.5z" fill="#333"/><path d="M1160 1139.5v.5M1160 464.5v10.1m0 10.08v20.17m0 10.1v20.16m0 10.1v20.18m0 10.08v20.18m0 10.1v20.16m0 10.1v20.17m0 10.08v20.18m0 10.1v20.16m0 10.08v20.18m0 10.08v20.18m0 10.1v20.16m0 10.1v20.17m0 10.08V868m0 10.1v20.17m0 10.1v20.17m0 10.08v20.18m0 10.1v20.16m0 10.1v20.16m0 10.1v10.08" stroke="#333" fill="none"/><path d="M1160.5 464.5h-1v-.5h1zM1160 1043h-.5v-3.5h.5z" fill="#333"/><path d="M1380 464.5v10.2m0 10.2v20.4m0 10.2v20.38m0 10.2v20.4m0 10.2v20.4m0 10.2v20.38m0 10.2v20.4m0 10.2v20.4m0 10.18v20.4m0 10.2v20.4m0 10.2v20.38m0 10.2v20.4m0 10.2v20.4m0 10.2v20.38m0 10.2V903m0 10.2v20.4m0 10.2v20.38m0 10.2v20.4m0 10.2v20.4m0 10.18v20.4m0 10.2v20.4m0 10.2v20.38m0 10.2v10.2" stroke="#333" fill="none"/><path d="M1380.5 464.5h-1v-.5h1z" fill="#333"/><path d="M1380 1137.53v.5" stroke="#333" fill="none"/><path d="M920 768c0-4.42 3.58-8 8-8h24c4.42 0 8 3.58 8 8v164c0 4.42-3.58 8-8 8h-24c-4.42 0-8-3.58-8-8z" stroke="#d1bcd2" fill="#b2d6ef"/><path d="M1360 628c0-4.42 3.58-8 8-8h24c4.42 0 8 3.58 8 8v84c0 4.42-3.58 8-8 8h-24c-4.42 0-8-3.58-8-8zM700 848c0-4.42 3.58-8 8-8h24c4.42 0 8 3.58 8 8v44c0 4.42-3.58 8-8 8h-24c-4.42 0-8-3.58-8-8zM1140 1008c0-4.42 3.58-8 8-8h24c4.42 0 8 3.58 8 8v64c0 4.42-3.58 8-8 8h-24c-4.42 0-8-3.58-8-8z" stroke="#000" stroke-opacity="0" fill="#b2d6ef"/><path d="M415.04 343v10m0 10.02v20.03m0 10v20.03m0 10v20.03m0 10.03v20.02m0 10v20.03m0 10v20.04m0 10v20.03m0 10v20.04m0 10v20.02m0 10v20.03m0 10.02v20.02m0 10v20.02m0 10v20.04m0 10v20.03m0 10v20.02m0 10.02v20.02m0 10v20.03m0 10v20.03m0 10v20.03m0 10v20.04m0 10v20.03m0 10v20.03m0 10.02v20.02m0 10v20.03m0 10v20.04m0 10v20.03m0 10v10.02" stroke="#333" fill="none"/><path d="M415.54 343h-1v-.5h1z" fill="#333"/><path d="M415.04 1153.9v.52" stroke="#333" fill="none"/><path d="M395.04 388c0-4.42 3.58-8 8-8h24c4.42 0 8 3.58 8 8v764c0 4.42-3.58 8-8 8h-24c-4.42 0-8-3.58-8-8z" stroke="#000" stroke-opacity="0" fill="#ffeca9"/><path d="M435.54 998.1l689.1 6.05" stroke="#333" fill="none"/><path d="M435.55 997.6v1h-.5v-1z" fill="#333"/><path d="M1139.4 1004.28l-14.3 4.5.08-9.26z" stroke="#333" fill="#333"/><use xlink:href="#o" transform="matrix(1,0,0,1,998.80753623365,977.9428906748187) translate(0.005000000000002558 14.4)"/><path d="M919.35 933.8l-5.03-.04m-5.03-.04l-10.07-.08m-5.03-.04l-10.07-.1m-5.03-.03l-10.06-.08m-5.03-.05l-10.06-.1m-5.03-.03l-10.05-.08m-5.03-.04l-10.06-.08m-5.04-.05l-10.06-.08m-5.03-.05l-10.06-.08m-5.04-.04l-10.06-.1m-5.03-.03l-10.06-.08m-5.03-.04l-10.07-.1m-5.03-.03l-10.06-.08m-5.04-.04l-10.07-.08m-5.04-.05l-10.06-.08m-5.03-.04l-10.07-.08m-5.03-.04l-10.06-.1m-5.02-.03l-10.07-.08m-5.02-.04l-10.06-.08m-5.03-.04l-10.07-.08m-5.04-.04l-10.07-.1m-5.03-.03l-10.06-.08m-5.04-.04l-10.06-.07m-5.03-.05l-10.05-.08m-5.03-.04l-10.07-.08m-5.03-.04l-10.06-.1m-5.03-.03l-10.07-.07m-5.03-.04l-10.06-.1m-5.03-.04l-10.07-.08m-5.03-.04l-10.06-.08m-5.03-.05l-10.07-.07m-5.03-.04l-5.03-.05" stroke="#333" fill="none"/><path d="M919.75 933.3l.2 1h-.6v-1z" fill="#333"/><path d="M436.66 929.83l14.3-4.52-.08 9.28z" stroke="#333" fill="#333"/><use xlink:href="#p" transform="matrix(1,0,0,1,543.5228493335594,935.1133143940226) translate(0.005000000000002558 14.4)"/><path d="M435.54 760.24L909.1 760" stroke="#333" fill="none"/><path d="M435.55 760.74h-.5v-1h.5z" fill="#333"/><path d="M923.86 760l-14.27 4.64v-9.27z" stroke="#333" fill="#333"/><use xlink:href="#q" transform="matrix(1,0,0,1,488.78196848264633,734.5626901425436) translate(0.0049999999999954525 14.4)"/><use xlink:href="#r" transform="matrix(1,0,0,1,488.78196848264633,734.5626901425436) translate(110.805 14.4)"/><path d="M435.54 799.4l467.58.72" stroke="#333" fill="none"/><path d="M435.55 798.9v1h-.5v-1z" fill="#333"/><path d="M917.88 800.14l-14.27 4.6.02-9.26z" stroke="#333" fill="#333"/><use xlink:href="#s" transform="matrix(1,0,0,1,540.9125067065761,774.0718218612363) translate(0.0049999999999954525 14.4)"/><path d="M435.54 838.2l254.2 2.04" stroke="#333" fill="none"/><path d="M435.55 837.7v1h-.5v-1z" fill="#333"/><path d="M704.52 840.36l-14.3 4.52.07-9.27z" stroke="#333" fill="#333"/><path d="M435.04 838.7v7.58m0 7.57V869m0 7.56v7.57" stroke="#333" fill="none"/><path d="M435.04 838.72h-.5v-3.52h.5z" fill="#333"/><path d="M435.04 898.9l-4.64-14.27h9.27z" stroke="#333" fill="#333"/><use xlink:href="#t" transform="matrix(1,0,0,1,443.0376190649113,858.5594097043024) translate(0.0049999999999954525 14.4)"/><path d="M701.07 896.5l-4.9-.04m-4.9-.05l-9.78-.1m-4.9-.03l-9.8-.1m-4.9-.05l-9.78-.1m-4.9-.05l-9.78-.1m-4.9-.04l-9.8-.1m-4.88-.05l-9.8-.1m-4.9-.05l-9.78-.1m-4.9-.04l-9.8-.1m-4.88-.06l-9.8-.1m-4.9-.05l-9.78-.1m-4.9-.05l-9.78-.1m-4.9-.05l-9.8-.1m-4.88-.04l-9.8-.1m-4.9-.05l-9.78-.1m-4.9-.04l-9.78-.1m-4.9-.04l-9.8-.1m-4.88-.05l-4.9-.05" stroke="#333" fill="none"/><path d="M701.23 896l.68 1.02h-.84v-1z" fill="#333"/><path d="M436.66 893.87l14.3-4.5-.1 9.28z" stroke="#333" fill="#333"/><path d="M435.54 625.4l910.5-3.06" stroke="#333" fill="none"/><path d="M435.55 625.9h-.5v-1h.5z" fill="#333"/><path d="M1360.82 622.3l-14.25 4.67-.03-9.27z" stroke="#333" fill="#333"/><use xlink:href="#u" transform="matrix(1,0,0,1,799.8187357063358,598.4440592657423) translate(0.005000000000002558 14.4)"/><path d="M1359.5 706.45h-4.96m-4.96.02l-9.93.03m-4.96 0l-9.94.04m-4.96 0l-9.92.04m-4.96 0l-9.93.04m-4.97 0l-9.92.04m-4.96 0l-9.92.03m-4.96 0l-9.93.03m-4.96.02l-9.92.02m-4.97.02h-9.92m-4.96.03l-9.93.02m-4.96 0l-9.9.04m-4.98 0l-9.92.03m-4.96 0l-9.93.04m-4.95 0l-9.92.04m-4.97.02l-9.92.03m-4.96 0l-9.93.04m-4.96 0l-9.93.03m-4.97 0l-9.92.04m-4.96 0l-9.93.04m-4.97.02l-9.92.02m-4.96.02l-9.92.02m-4.96.02l-9.93.02m-4.96.02l-9.92.02m-4.96.02l-9.94.02m-4.96 0l-9.93.04m-4.96 0l-9.9.04m-4.97 0l-9.93.04m-4.96 0l-9.93.04m-4.95 0l-9.92.04m-4.96 0l-9.93.04m-4.96 0l-9.92.04m-4.97 0l-9.93.04m-4.96 0l-9.92.03m-4.96.02l-9.92.02m-4.97 0l-9.92.03m-4.95.02l-9.93.02m-4.96.02h-9.92m-4.97.02l-9.92.03m-4.96 0l-9.94.04m-4.96 0l-9.92.03m-4.97 0l-9.9.04m-4.97 0l-9.93.04m-4.96.02l-9.92.03m-4.97 0l-9.92.04m-4.96 0l-9.93.03m-4.96 0l-9.92.03m-4.96.02l-9.93.02m-4.96.02l-9.92.02m-4.96.02l-9.92.02m-4.96.02l-9.93.02m-4.95.02l-9.93.02m-4.96 0l-9.92.04m-4.96 0l-9.93.04m-4.96 0l-9.93.04m-4.97 0l-9.92.04m-4.96 0l-9.93.04m-4.97 0l-9.92.04m-4.96 0l-9.92.04m-4.96 0l-9.93.04m-4.96 0l-9.92.03m-4.97.03h-4.96" stroke="#333" fill="none"/><path d="M1360 706.94h-.5v-1h.5z" fill="#333"/><path d="M436.66 708.88l14.25-4.67.03 9.28z" stroke="#333" fill="#333"/><use xlink:href="#v" transform="matrix(1,0,0,1,789.2915182435236,711.8359625156859) translate(0.005000000000002558 14.4)"/><path d="M1595.04 464.5v9.8m0 9.8v19.6m0 9.8v19.6m0 9.8v19.6m0 9.8v19.6m0 9.8v19.6m0 9.8v19.6m0 9.8v19.6m0 9.8v19.6m0 9.8v19.6m0 9.8v19.6m0 9.8v19.58m0 9.8v19.6m0 9.8v19.6m0 9.8v19.6m0 9.8v19.6m0 9.8v19.6m0 9.8v19.6m0 9.8v19.6m0 9.8v19.6m0 9.8v19.6m0 9.8v19.6m0 9.8v19.6m0 9.8v9.8" stroke="#333" fill="none"/><path d="M1595.54 464.5h-1v-.5h1z" fill="#333"/><path d="M1595.04 1140.66v.5" stroke="#333" fill="none"/><path d="M1575.04 628c0-4.42 3.58-8 8-8h24c4.42 0 8 3.58 8 8v84c0 4.42-3.58 8-8 8h-24c-4.42 0-8-3.58-8-8z" stroke="#000" stroke-opacity="0" fill="#ffbbb1"/><path d="M1180.5 1017.6h378.15" stroke="#333" fill="none"/><path d="M1180.5 1018.1h-.5v-1h.5z" fill="#333"/><path d="M1573.42 1017.6l-14.27 4.65v-9.28z" stroke="#333" fill="#333"/><use xlink:href="#w" transform="matrix(1,0,0,1,1417.2084147485857,992.0099588183351) translate(0.005000000000002558 14.4)"/><use xlink:href="#x" transform="matrix(1,0,0,1,1417.2084147485857,992.0099588183351) translate(60.005 14.4)"/><path d="M1400.5 641.78h158.15" stroke="#333" fill="none"/><path d="M1400.5 642.28h-.5v-1h.5z" fill="#333"/><path d="M1573.42 641.78l-14.27 4.64v-9.27z" stroke="#333" fill="#333"/><path d="M1574.54 698.92l-5.1.04m-5.1.03l-10.2.05m-5.12.04l-10.2.05m-5.1.03l-10.2.07m-5.1.03l-10.22.07m-5.1.03l-10.2.06m-5.1.03l-10.2.07m-5.12.03l-10.2.07m-5.1.03l-10.2.06m-5.1.04l-10.22.06m-5.1.03l-5.1.04" stroke="#333" fill="none"/><path d="M1575.04 699.42h-.5l-.02-1h.52z" fill="#333"/><path d="M1406.7 700l14.23-4.74.05 9.27z" stroke="#333" fill="#333"/><path d="M1575.04 1008c0-4.42 3.58-8 8-8h24c4.42 0 8 3.58 8 8v64c0 4.42-3.58 8-8 8h-24c-4.42 0-8-3.58-8-8z" stroke="#000" stroke-opacity="0" fill="#ffbbb1"/><path d="M200 588c0-4.42 3.58-8 8-8h84c4.42 0 8 3.58 8 8v4.93c0 3.9-2.24 9.3-5 12.07-2.76 2.76-8.17 5-12.07 5H208c-4.42 0-8-3.58-8-8z" fill="#fff"/><path d="M300 580v20l-10 10h-90" stroke="#333" fill="none"/><path d="M200 588c0-4.42 3.58-8 8-8h1444c4.42 0 8 3.58 8 8v524c0 4.42-3.58 8-8 8H208c-4.42 0-8-3.58-8-8z" stroke="#333" fill="none"/><use xlink:href="#y" transform="matrix(1,0,0,1,208,580) translate(21 18.6)"/><use xlink:href="#z" transform="matrix(1,0,0,1,212,618) translate(11.674999999999997 18.6)"/><use xlink:href="#A" transform="matrix(1,0,0,1,212,618) translate(62.525 18.6)"/><use xlink:href="#B" transform="matrix(1,0,0,1,212,618) translate(108.425 18.6)"/><path d="M200 488c0-4.42 3.58-8 8-8h84c4.42 0 8 3.58 8 8v4.93c0 3.9-2.24 9.3-5 12.07-2.76 2.76-8.17 5-12.07 5H208c-4.42 0-8-3.58-8-8z" fill="#fff"/><path d="M300 480v20l-10 10h-90" stroke="#333" fill="none"/><path d="M200 488c0-4.42 3.58-8 8-8h1444c4.42 0 8 3.58 8 8v64c0 4.42-3.58 8-8 8H208c-4.42 0-8-3.58-8-8z" stroke="#333" fill="none"/><g><use xlink:href="#C" transform="matrix(1,0,0,1,208.0000000000001,480) translate(-5.875000000000007 18.6)"/></g><path d="M435.54 402.48h168.08" stroke="#333" fill="none"/><path d="M435.55 402.98h-.5v-1h.5z" fill="#333"/><path d="M618.38 402.48l-14.26 4.64v-9.27z" stroke="#333" fill="#333"/><g><use xlink:href="#D" transform="matrix(1,0,0,1,502.5438095324556,376.8819542671291) translate(0.004999999999999005 14.4)"/></g><path d="M1395.04 728c0-4.42 3.58-8 8-8h164c4.42 0 8 3.58 8 8v44c0 4.42-3.58 8-8 8h-164c-4.42 0-8-3.58-8-8z" stroke="#000" stroke-opacity="0" fill="#fff" fill-opacity="0"/><g><use xlink:href="#E" transform="matrix(1,0,0,1,1400.0376190649113,725) translate(21.599999999999994 17.525)"/><use xlink:href="#F" transform="matrix(1,0,0,1,1400.0376190649113,725) translate(80.5 17.525)"/><use xlink:href="#G" transform="matrix(1,0,0,1,1400.0376190649113,725) translate(24.6 39.125)"/><use xlink:href="#H" transform="matrix(1,0,0,1,1400.0376190649113,725) translate(75.5 39.125)"/><use xlink:href="#x" transform="matrix(1,0,0,1,1400.0376190649113,725) translate(116.4 39.125)"/></g><path d="M1160 1018c0-4.42 3.58-8 8-8h144c4.42 0 8 3.58 8 8v44c0 4.42-3.58 8-8 8h-144c-4.42 0-8-3.58-8-8z" stroke="#000" stroke-opacity="0" fill="#fff" fill-opacity="0"/><g><use xlink:href="#I" transform="matrix(1,0,0,1,1165,1015) translate(36.62499999999999 30.025)"/><use xlink:href="#J" transform="matrix(1,0,0,1,1165,1015) translate(55.57499999999999 30.025)"/></g><path d="M1380 648c0-4.42 3.58-8 8-8h144c4.42 0 8 3.58 8 8v44c0 4.42-3.58 8-8 8h-144c-4.42 0-8-3.58-8-8z" stroke="#000" stroke-opacity="0" fill="#fff" fill-opacity="0"/><g><use xlink:href="#I" transform="matrix(1,0,0,1,1385,645) translate(36.62499999999999 30.025)"/><use xlink:href="#J" transform="matrix(1,0,0,1,1385,645) translate(55.57499999999999 30.025)"/></g><defs><path fill="#333" d="M248-111c6-24 9-61-24-58-72 9-57 108-77 169h-31l26-142c3-37-50-30-64-10C52-115 50-51 37 0H6l36-190h30c-1 10-6 24-4 32 13-43 101-52 105 5 13-22 29-41 61-41 90 0 28 129 23 194h-31" id="K"/><path fill="#333" d="M30-147c31-64 166-65 159 27C183-49 158 1 86 4 9 8 1-88 30-147zM88-20c53 0 68-48 68-100 0-31-11-51-44-50-52 1-68 46-68 97 0 32 13 53 44 53" id="L"/><path fill="#333" d="M133-28C103 26-5 8 13-77c13-62 24-115 90-117 29-1 46 15 56 35l19-102h32L160 0h-30zM45-64c-2 27 10 43 35 43 54-1 69-50 69-103 0-29-15-46-42-46-53-1-58 58-62 106" id="M"/><path fill="#333" d="M111-194c62-3 86 47 72 106H45c-7 38 6 69 45 68 27-1 43-14 53-32l24 11C152-15 129 4 87 4 38 3 12-23 12-71c0-70 32-119 99-123zm44 81c14-66-71-72-95-28-4 8-8 17-11 28h106" id="N"/><path fill="#333" d="M6 0l50-261h32L37 0H6" id="O"/><g id="a"><use transform="matrix(0.04938271604938272,0,0,0.04938271604938272,0,0)" xlink:href="#K"/><use transform="matrix(0.04938271604938272,0,0,0.04938271604938272,14.765432098765434,0)" xlink:href="#L"/><use transform="matrix(0.04938271604938272,0,0,0.04938271604938272,24.641975308641978,0)" xlink:href="#M"/><use transform="matrix(0.04938271604938272,0,0,0.04938271604938272,34.51851851851852,0)" xlink:href="#N"/><use transform="matrix(0.04938271604938272,0,0,0.04938271604938272,44.39506172839506,0)" xlink:href="#O"/><path fill="#333" d="M-.9 1.23h55.02v1.3h-55z"/></g><path fill="#333" d="M44-154l7-36h35l-8 36H44zM14 0l7-36h35L49 0H14" id="P"/><g id="b"><use transform="matrix(0.04938271604938272,0,0,0.04938271604938272,0,0)" xlink:href="#P"/><path fill="#333" d="M-.9 1.23h11.66v1.3H-.9z"/></g><path fill="#333" d="M180 0L97-118 63-96 45 0H11l48-248h34L69-126c44-43 94-81 141-122h43L121-137 219 0h-39" id="Q"/><path fill="#333" d="M50-231l6-30h32l-6 30H50zM6 0l37-190h31L37 0H6" id="R"/><path fill="#333" d="M87-220l-18 92h140l-5 28H64L45 0H11l48-248h178l-5 28H87" id="S"/><path fill="#333" d="M67 3c-93-2-31-127-26-193h32L48-50c-3 39 53 32 70 12 30-34 30-101 43-152h32L157 0h-30c1-10 6-24 4-33-14 20-29 37-64 36" id="T"/><path fill="#333" d="M222 0l43-216c-8 16-17 34-26 49L143 0h-22L81-216 41 0H11l48-248h42l38 208 116-208h45L252 0h-30" id="U"/><g id="c"><use transform="matrix(0.04938271604938272,0,0,0.04938271604938272,0,0)" xlink:href="#Q"/><use transform="matrix(0.04938271604938272,0,0,0.04938271604938272,11.851851851851853,0)" xlink:href="#R"/><use transform="matrix(0.04938271604938272,0,0,0.04938271604938272,15.753086419753087,0)" xlink:href="#S"/><use transform="matrix(0.04938271604938272,0,0,0.04938271604938272,26.567901234567902,0)" xlink:href="#T"/><use transform="matrix(0.04938271604938272,0,0,0.04938271604938272,36.44444444444445,0)" xlink:href="#U"/><use transform="matrix(0.04938271604938272,0,0,0.04938271604938272,51.209876543209894,0)" xlink:href="#L"/><use transform="matrix(0.04938271604938272,0,0,0.04938271604938272,61.08641975308644,0)" xlink:href="#M"/><use transform="matrix(0.04938271604938272,0,0,0.04938271604938272,70.96296296296298,0)" xlink:href="#N"/><use transform="matrix(0.04938271604938272,0,0,0.04938271604938272,80.83950617283952,0)" xlink:href="#O"/><path fill="#333" d="M-.9 1.23h86.53v1.3H-.9z"/></g><path fill="#333" d="M-28 44V31h207v13H-28" id="V"/><path fill="#333" d="M51-54c-9 22 5 41 31 30L79-1C43 14 10-4 19-52l22-115H19l5-23h22l19-43h21l-9 43h35l-4 23H73" id="W"/><path fill="#333" d="M55-144c13 50 104 24 104 88C159 21 15 23 1-39l26-10c6 40 102 42 102-4-13-50-104-23-104-87 0-71 143-71 148-8l-29 4c-5-35-85-37-89 0" id="X"/><path fill="#333" d="M76-167L44 0H12l33-167H18l4-23h27c3-47 25-81 82-69l-4 24c-35-8-44 15-46 45h37l-5 23H76" id="Y"/><g id="d"><use transform="matrix(0.04938271604938272,0,0,0.04938271604938272,0,0)" xlink:href="#K"/><use transform="matrix(0.04938271604938272,0,0,0.04938271604938272,14.765432098765434,0)" xlink:href="#V"/><use transform="matrix(0.04938271604938272,0,0,0.04938271604938272,24.641975308641978,0)" xlink:href="#W"/><use transform="matrix(0.04938271604938272,0,0,0.04938271604938272,29.58024691358025,0)" xlink:href="#X"/><use transform="matrix(0.04938271604938272,0,0,0.04938271604938272,38.46913580246914,0)" xlink:href="#M"/><use transform="matrix(0.04938271604938272,0,0,0.04938271604938272,48.345679012345684,0)" xlink:href="#Y"/><path fill="#333" d="M-.9 1.23h60v1.3h-60z"/></g><path fill="#333" d="M151-220L108 0H75l42-220H32l6-28h203l-5 28h-85" id="Z"/><g id="e"><use transform="matrix(0.04938271604938272,0,0,0.04938271604938272,0,0)" xlink:href="#P"/><use transform="matrix(0.04938271604938272,0,0,0.04938271604938272,4.938271604938272,0)" xlink:href="#Z"/><use transform="matrix(0.04938271604938272,0,0,0.04938271604938272,14.123456790123457,0)" xlink:href="#X"/><use transform="matrix(0.04938271604938272,0,0,0.04938271604938272,23.01234567901235,0)" xlink:href="#M"/><use transform="matrix(0.04938271604938272,0,0,0.04938271604938272,32.88888888888889,0)" xlink:href="#Y"/><path fill="#333" d="M-.9 1.23h39.6v1.3H-.9z"/></g><path fill="#333" d="M194-120c59 52 2 134-86 124-53-6-90-18-98-63l31-7c8 30 29 43 70 43 46 0 84-17 71-62-32-43-135-20-137-98-3-89 178-90 191-16l-30 9c-8-48-127-53-127 5 0 53 81 35 115 65" id="aa"/><path fill="#333" d="M66-151c12-25 30-51 66-40l-6 26C45-176 58-65 38 0H6l36-190h30" id="ab"/><path fill="#333" d="M165-48c-4 18 1 34 23 27l-3 20c-29 8-62 0-52-35h-2C116-14 99 4 63 4 30 4 8-16 8-49c0-68 71-67 138-67 10-26 0-56-31-54-26 1-42 9-47 31l-32-5c8-67 160-71 144 15-5 28-9 54-15 81zM42-50c3 52 80 24 89-6 7-12 7-24 11-38-47 1-103-4-100 44" id="ac"/><path fill="#333" d="M44-68c0 29 11 47 38 47 30 0 42-19 51-41l28 9C148-21 126 4 82 4 31 4 10-29 12-85c3-77 74-140 146-93 12 8 15 23 18 40l-31 5c-1-22-13-36-36-36-52 0-65 49-65 101" id="ad"/><g id="f"><use transform="matrix(0.04938271604938272,0,0,0.04938271604938272,0,0)" xlink:href="#K"/><use transform="matrix(0.04938271604938272,0,0,0.04938271604938272,14.765432098765434,0)" xlink:href="#V"/><use transform="matrix(0.04938271604938272,0,0,0.04938271604938272,24.641975308641978,0)" xlink:href="#aa"/><use transform="matrix(0.04938271604938272,0,0,0.04938271604938272,36.49382716049383,0)" xlink:href="#T"/><use transform="matrix(0.04938271604938272,0,0,0.04938271604938272,46.370370370370374,0)" xlink:href="#ab"/><use transform="matrix(0.04938271604938272,0,0,0.04938271604938272,52.24691358024692,0)" xlink:href="#Y"/><use transform="matrix(0.04938271604938272,0,0,0.04938271604938272,57.18518518518519,0)" xlink:href="#ac"/><use transform="matrix(0.04938271604938272,0,0,0.04938271604938272,67.06172839506173,0)" xlink:href="#ad"/><use transform="matrix(0.04938271604938272,0,0,0.04938271604938272,75.95061728395062,0)" xlink:href="#N"/><use transform="matrix(0.04938271604938272,0,0,0.04938271604938272,85.82716049382717,0)" xlink:href="#U"/><use transform="matrix(0.04938271604938272,0,0,0.04938271604938272,100.5925925925926,0)" xlink:href="#N"/><use transform="matrix(0.04938271604938272,0,0,0.04938271604938272,110.46913580246914,0)" xlink:href="#ac"/><use transform="matrix(0.04938271604938272,0,0,0.04938271604938272,120.34567901234568,0)" xlink:href="#X"/><use transform="matrix(0.04938271604938272,0,0,0.04938271604938272,129.23456790123458,0)" xlink:href="#T"/><use transform="matrix(0.04938271604938272,0,0,0.04938271604938272,139.11111111111114,0)" xlink:href="#ab"/><use transform="matrix(0.04938271604938272,0,0,0.04938271604938272,144.98765432098767,0)" xlink:href="#N"/><use transform="matrix(0.04938271604938272,0,0,0.04938271604938272,154.8641975308642,0)" xlink:href="#ab"/><path fill="#333" d="M-.9 1.23h167.47v1.3H-.9z"/></g><g id="g"><use transform="matrix(0.04938271604938272,0,0,0.04938271604938272,0,0)" xlink:href="#P"/><path fill="#333" d="M-.9 1.23h6.73v1.3H-.9z"/></g><g id="h"><use transform="matrix(0.04938271604938272,0,0,0.04938271604938272,0,0)" xlink:href="#aa"/><use transform="matrix(0.04938271604938272,0,0,0.04938271604938272,11.851851851851853,0)" xlink:href="#T"/><use transform="matrix(0.04938271604938272,0,0,0.04938271604938272,21.7283950617284,0)" xlink:href="#ab"/><use transform="matrix(0.04938271604938272,0,0,0.04938271604938272,27.604938271604947,0)" xlink:href="#Y"/><use transform="matrix(0.04938271604938272,0,0,0.04938271604938272,32.543209876543216,0)" xlink:href="#ac"/><use transform="matrix(0.04938271604938272,0,0,0.04938271604938272,42.41975308641976,0)" xlink:href="#ad"/><use transform="matrix(0.04938271604938272,0,0,0.04938271604938272,51.308641975308646,0)" xlink:href="#N"/><use transform="matrix(0.04938271604938272,0,0,0.04938271604938272,61.18518518518519,0)" xlink:href="#U"/><use transform="matrix(0.04938271604938272,0,0,0.04938271604938272,75.95061728395062,0)" xlink:href="#N"/><use transform="matrix(0.04938271604938272,0,0,0.04938271604938272,85.82716049382717,0)" xlink:href="#ac"/><use transform="matrix(0.04938271604938272,0,0,0.04938271604938272,95.70370370370371,0)" xlink:href="#X"/><use transform="matrix(0.04938271604938272,0,0,0.04938271604938272,104.5925925925926,0)" xlink:href="#T"/><use transform="matrix(0.04938271604938272,0,0,0.04938271604938272,114.46913580246914,0)" xlink:href="#N"/><use transform="matrix(0.04938271604938272,0,0,0.04938271604938272,124.34567901234568,0)" xlink:href="#ab"/><use transform="matrix(0.04938271604938272,0,0,0.04938271604938272,130.22222222222223,0)" xlink:href="#N"/><use transform="matrix(0.04938271604938272,0,0,0.04938271604938272,140.0987654320988,0)" xlink:href="#ab"/><path fill="#333" d="M-.9 1.23h147.76v1.3H-.9z"/></g><path fill="#333" d="M238-179c0 84-86 86-175 82L45 0H11l48-248c82 0 179-12 179 69zm-34 1c0-53-64-42-116-43l-19 98c63 0 135 9 135-55" id="ae"/><path fill="#333" d="M11 0l48-248h184l-5 28H87l-15 79h140l-5 27H67L50-27h158l-5 27H11" id="af"/><g id="i"><use transform="matrix(0.04938271604938272,0,0,0.04938271604938272,0,0)" xlink:href="#K"/><use transform="matrix(0.04938271604938272,0,0,0.04938271604938272,14.765432098765434,0)" xlink:href="#V"/><use transform="matrix(0.04938271604938272,0,0,0.04938271604938272,24.641975308641978,0)" xlink:href="#ae"/><use transform="matrix(0.04938271604938272,0,0,0.04938271604938272,36.49382716049383,0)" xlink:href="#L"/><use transform="matrix(0.04938271604938272,0,0,0.04938271604938272,46.370370370370374,0)" xlink:href="#X"/><use transform="matrix(0.04938271604938272,0,0,0.04938271604938272,55.25925925925927,0)" xlink:href="#N"/><use transform="matrix(0.04938271604938272,0,0,0.04938271604938272,65.13580246913581,0)" xlink:href="#af"/><use transform="matrix(0.04938271604938272,0,0,0.04938271604938272,76.98765432098766,0)" xlink:href="#X"/><use transform="matrix(0.04938271604938272,0,0,0.04938271604938272,85.87654320987654,0)" xlink:href="#W"/><use transform="matrix(0.04938271604938272,0,0,0.04938271604938272,90.81481481481481,0)" xlink:href="#R"/><use transform="matrix(0.04938271604938272,0,0,0.04938271604938272,94.71604938271605,0)" xlink:href="#K"/><use transform="matrix(0.04938271604938272,0,0,0.04938271604938272,109.4814814814815,0)" xlink:href="#ac"/><use transform="matrix(0.04938271604938272,0,0,0.04938271604938272,119.35802469135804,0)" xlink:href="#W"/><use transform="matrix(0.04938271604938272,0,0,0.04938271604938272,124.2962962962963,0)" xlink:href="#L"/><use transform="matrix(0.04938271604938272,0,0,0.04938271604938272,134.17283950617286,0)" xlink:href="#ab"/><path fill="#333" d="M-.9 1.23H145.9v1.3H-.9z"/></g><g id="j"><use transform="matrix(0.04938271604938272,0,0,0.04938271604938272,0,0)" xlink:href="#ae"/><use transform="matrix(0.04938271604938272,0,0,0.04938271604938272,11.851851851851853,0)" xlink:href="#L"/><use transform="matrix(0.04938271604938272,0,0,0.04938271604938272,21.7283950617284,0)" xlink:href="#X"/><use transform="matrix(0.04938271604938272,0,0,0.04938271604938272,30.617283950617285,0)" xlink:href="#N"/><use transform="matrix(0.04938271604938272,0,0,0.04938271604938272,40.49382716049384,0)" xlink:href="#af"/><use transform="matrix(0.04938271604938272,0,0,0.04938271604938272,52.34567901234569,0)" xlink:href="#X"/><use transform="matrix(0.04938271604938272,0,0,0.04938271604938272,61.234567901234584,0)" xlink:href="#W"/><use transform="matrix(0.04938271604938272,0,0,0.04938271604938272,66.17283950617286,0)" xlink:href="#R"/><use transform="matrix(0.04938271604938272,0,0,0.04938271604938272,70.0740740740741,0)" xlink:href="#K"/><use transform="matrix(0.04938271604938272,0,0,0.04938271604938272,84.83950617283953,0)" xlink:href="#ac"/><use transform="matrix(0.04938271604938272,0,0,0.04938271604938272,94.71604938271608,0)" xlink:href="#W"/><use transform="matrix(0.04938271604938272,0,0,0.04938271604938272,99.65432098765436,0)" xlink:href="#L"/><use transform="matrix(0.04938271604938272,0,0,0.04938271604938272,109.5308641975309,0)" xlink:href="#ab"/><path fill="#333" d="M-.9 1.23h117.2v1.3H-.9z"/></g><path fill="#333" d="M249-183c0 48-29 72-75 77L221 0h-36l-43-103H65L45 0H11l48-248c83 2 190-17 190 65zm-34 3c0-55-74-39-127-41l-18 92c63-1 145 13 145-51" id="ag"/><path fill="#333" d="M67-158c22-48 132-52 116 29L158 0h-32l25-140c3-38-53-32-70-12C52-117 51-52 38 0H6l36-190h30" id="ah"/><g id="k"><use transform="matrix(0.04938271604938272,0,0,0.04938271604938272,0,0)" xlink:href="#K"/><use transform="matrix(0.04938271604938272,0,0,0.04938271604938272,14.765432098765434,0)" xlink:href="#V"/><use transform="matrix(0.04938271604938272,0,0,0.04938271604938272,24.641975308641978,0)" xlink:href="#aa"/><use transform="matrix(0.04938271604938272,0,0,0.04938271604938272,36.49382716049383,0)" xlink:href="#T"/><use transform="matrix(0.04938271604938272,0,0,0.04938271604938272,46.370370370370374,0)" xlink:href="#ab"/><use transform="matrix(0.04938271604938272,0,0,0.04938271604938272,52.24691358024692,0)" xlink:href="#Y"/><use transform="matrix(0.04938271604938272,0,0,0.04938271604938272,57.18518518518519,0)" xlink:href="#ac"/><use transform="matrix(0.04938271604938272,0,0,0.04938271604938272,67.06172839506173,0)" xlink:href="#ad"/><use transform="matrix(0.04938271604938272,0,0,0.04938271604938272,75.95061728395062,0)" xlink:href="#N"/><use transform="matrix(0.04938271604938272,0,0,0.04938271604938272,85.82716049382717,0)" xlink:href="#ag"/><use transform="matrix(0.04938271604938272,0,0,0.04938271604938272,98.61728395061729,0)" xlink:href="#N"/><use transform="matrix(0.04938271604938272,0,0,0.04938271604938272,108.49382716049384,0)" xlink:href="#ad"/><use transform="matrix(0.04938271604938272,0,0,0.04938271604938272,117.38271604938272,0)" xlink:href="#L"/><use transform="matrix(0.04938271604938272,0,0,0.04938271604938272,127.25925925925927,0)" xlink:href="#ah"/><use transform="matrix(0.04938271604938272,0,0,0.04938271604938272,137.1358024691358,0)" xlink:href="#X"/><use transform="matrix(0.04938271604938272,0,0,0.04938271604938272,146.02469135802468,0)" xlink:href="#W"/><use transform="matrix(0.04938271604938272,0,0,0.04938271604938272,150.96296296296296,0)" xlink:href="#ab"/><use transform="matrix(0.04938271604938272,0,0,0.04938271604938272,156.8395061728395,0)" xlink:href="#T"/><use transform="matrix(0.04938271604938272,0,0,0.04938271604938272,166.71604938271605,0)" xlink:href="#ad"/><use transform="matrix(0.04938271604938272,0,0,0.04938271604938272,175.60493827160494,0)" xlink:href="#W"/><use transform="matrix(0.04938271604938272,0,0,0.04938271604938272,180.54320987654322,0)" xlink:href="#L"/><use transform="matrix(0.04938271604938272,0,0,0.04938271604938272,190.41975308641975,0)" xlink:href="#ab"/><path fill="#333" d="M-.9 1.23H197.2v1.3H-.9z"/></g><g id="l"><use transform="matrix(0.04938271604938272,0,0,0.04938271604938272,0,0)" xlink:href="#aa"/><use transform="matrix(0.04938271604938272,0,0,0.04938271604938272,11.851851851851853,0)" xlink:href="#T"/><use transform="matrix(0.04938271604938272,0,0,0.04938271604938272,21.7283950617284,0)" xlink:href="#ab"/><use transform="matrix(0.04938271604938272,0,0,0.04938271604938272,27.604938271604947,0)" xlink:href="#Y"/><use transform="matrix(0.04938271604938272,0,0,0.04938271604938272,32.543209876543216,0)" xlink:href="#ac"/><use transform="matrix(0.04938271604938272,0,0,0.04938271604938272,42.41975308641976,0)" xlink:href="#ad"/><use transform="matrix(0.04938271604938272,0,0,0.04938271604938272,51.308641975308646,0)" xlink:href="#N"/><use transform="matrix(0.04938271604938272,0,0,0.04938271604938272,61.18518518518519,0)" xlink:href="#ag"/><use transform="matrix(0.04938271604938272,0,0,0.04938271604938272,73.97530864197532,0)" xlink:href="#N"/><use transform="matrix(0.04938271604938272,0,0,0.04938271604938272,83.85185185185186,0)" xlink:href="#ad"/><use transform="matrix(0.04938271604938272,0,0,0.04938271604938272,92.74074074074075,0)" xlink:href="#L"/><use transform="matrix(0.04938271604938272,0,0,0.04938271604938272,102.61728395061729,0)" xlink:href="#ah"/><use transform="matrix(0.04938271604938272,0,0,0.04938271604938272,112.49382716049384,0)" xlink:href="#X"/><use transform="matrix(0.04938271604938272,0,0,0.04938271604938272,121.38271604938272,0)" xlink:href="#W"/><use transform="matrix(0.04938271604938272,0,0,0.04938271604938272,126.320987654321,0)" xlink:href="#ab"/><use transform="matrix(0.04938271604938272,0,0,0.04938271604938272,132.19753086419752,0)" xlink:href="#T"/><use transform="matrix(0.04938271604938272,0,0,0.04938271604938272,142.07407407407408,0)" xlink:href="#ad"/><use transform="matrix(0.04938271604938272,0,0,0.04938271604938272,150.96296296296296,0)" xlink:href="#W"/><use transform="matrix(0.04938271604938272,0,0,0.04938271604938272,155.90123456790124,0)" xlink:href="#L"/><use transform="matrix(0.04938271604938272,0,0,0.04938271604938272,165.77777777777777,0)" xlink:href="#ab"/><path fill="#333" d="M-.9 1.23h173.44v1.3H-.9z"/></g><g id="m"><use transform="matrix(0.04938271604938272,0,0,0.04938271604938272,0,0)" xlink:href="#K"/><use transform="matrix(0.04938271604938272,0,0,0.04938271604938272,14.765432098765434,0)" xlink:href="#V"/><use transform="matrix(0.04938271604938272,0,0,0.04938271604938272,24.641975308641978,0)" xlink:href="#aa"/><use transform="matrix(0.04938271604938272,0,0,0.04938271604938272,36.49382716049383,0)" xlink:href="#T"/><use transform="matrix(0.04938271604938272,0,0,0.04938271604938272,46.370370370370374,0)" xlink:href="#ab"/><use transform="matrix(0.04938271604938272,0,0,0.04938271604938272,52.24691358024692,0)" xlink:href="#Y"/><use transform="matrix(0.04938271604938272,0,0,0.04938271604938272,57.18518518518519,0)" xlink:href="#ac"/><use transform="matrix(0.04938271604938272,0,0,0.04938271604938272,67.06172839506173,0)" xlink:href="#ad"/><use transform="matrix(0.04938271604938272,0,0,0.04938271604938272,75.95061728395062,0)" xlink:href="#N"/><use transform="matrix(0.04938271604938272,0,0,0.04938271604938272,85.82716049382717,0)" xlink:href="#ae"/><use transform="matrix(0.04938271604938272,0,0,0.04938271604938272,97.67901234567901,0)" xlink:href="#ab"/><use transform="matrix(0.04938271604938272,0,0,0.04938271604938272,103.55555555555557,0)" xlink:href="#N"/><use transform="matrix(0.04938271604938272,0,0,0.04938271604938272,113.4320987654321,0)" xlink:href="#M"/><use transform="matrix(0.04938271604938272,0,0,0.04938271604938272,123.30864197530865,0)" xlink:href="#R"/><use transform="matrix(0.04938271604938272,0,0,0.04938271604938272,127.20987654320989,0)" xlink:href="#ad"/><use transform="matrix(0.04938271604938272,0,0,0.04938271604938272,136.0987654320988,0)" xlink:href="#W"/><use transform="matrix(0.04938271604938272,0,0,0.04938271604938272,141.03703703703707,0)" xlink:href="#L"/><use transform="matrix(0.04938271604938272,0,0,0.04938271604938272,150.91358024691363,0)" xlink:href="#ab"/><path fill="#333" d="M-.9 1.23h163.52v1.3H-.88z"/></g><g id="n"><use transform="matrix(0.04938271604938272,0,0,0.04938271604938272,0,0)" xlink:href="#aa"/><use transform="matrix(0.04938271604938272,0,0,0.04938271604938272,11.851851851851853,0)" xlink:href="#T"/><use transform="matrix(0.04938271604938272,0,0,0.04938271604938272,21.7283950617284,0)" xlink:href="#ab"/><use transform="matrix(0.04938271604938272,0,0,0.04938271604938272,27.604938271604947,0)" xlink:href="#Y"/><use transform="matrix(0.04938271604938272,0,0,0.04938271604938272,32.543209876543216,0)" xlink:href="#ac"/><use transform="matrix(0.04938271604938272,0,0,0.04938271604938272,42.41975308641976,0)" xlink:href="#ad"/><use transform="matrix(0.04938271604938272,0,0,0.04938271604938272,51.308641975308646,0)" xlink:href="#N"/><use transform="matrix(0.04938271604938272,0,0,0.04938271604938272,61.18518518518519,0)" xlink:href="#ae"/><use transform="matrix(0.04938271604938272,0,0,0.04938271604938272,73.03703703703704,0)" xlink:href="#ab"/><use transform="matrix(0.04938271604938272,0,0,0.04938271604938272,78.91358024691358,0)" xlink:href="#N"/><use transform="matrix(0.04938271604938272,0,0,0.04938271604938272,88.79012345679013,0)" xlink:href="#M"/><use transform="matrix(0.04938271604938272,0,0,0.04938271604938272,98.66666666666667,0)" xlink:href="#R"/><use transform="matrix(0.04938271604938272,0,0,0.04938271604938272,102.56790123456791,0)" xlink:href="#ad"/><use transform="matrix(0.04938271604938272,0,0,0.04938271604938272,111.4567901234568,0)" xlink:href="#W"/><use transform="matrix(0.04938271604938272,0,0,0.04938271604938272,116.39506172839508,0)" xlink:href="#L"/><use transform="matrix(0.04938271604938272,0,0,0.04938271604938272,126.27160493827162,0)" xlink:href="#ab"/><path fill="#333" d="M-.9 1.23h133.94v1.3H-.9z"/></g><path fill="#333" d="M114-163C36-179 61-72 57 0H25l-1-190h30c1 12-1 29 2 39 6-27 23-49 58-41v29" id="ai"/><path fill="#333" d="M100-194c63 0 86 42 84 106H49c0 40 14 67 53 68 26 1 43-12 49-29l28 8c-11 28-37 45-77 45C44 4 14-33 15-96c1-61 26-98 85-98zm52 81c6-60-76-77-97-28-3 7-6 17-6 28h103" id="aj"/><path fill="#333" d="M96-169c-40 0-48 33-48 73s9 75 48 75c24 0 41-14 43-38l32 2c-6 37-31 61-74 61-59 0-76-41-82-99-10-93 101-131 147-64 4 7 5 14 7 22l-32 3c-4-21-16-35-41-35" id="ak"/><path fill="#333" d="M100-194c62-1 85 37 85 99 1 63-27 99-86 99S16-35 15-95c0-66 28-99 85-99zM99-20c44 1 53-31 53-75 0-43-8-75-51-75s-53 32-53 75 10 74 51 75" id="al"/><path fill="#333" d="M117-194c89-4 53 116 60 194h-32v-121c0-31-8-49-39-48C34-167 62-67 57 0H25l-1-190h30c1 10-1 24 2 32 11-22 29-35 61-36" id="am"/><path fill="#333" d="M135-143c-3-34-86-38-87 0 15 53 115 12 119 90S17 21 10-45l28-5c4 36 97 45 98 0-10-56-113-15-118-90-4-57 82-63 122-42 12 7 21 19 24 35" id="an"/><path fill="#333" d="M59-47c-2 24 18 29 38 22v24C64 9 27 4 27-40v-127H5v-23h24l9-43h21v43h35v23H59v120" id="ao"/><path fill="#333" d="M84 4C-5 8 30-112 23-190h32v120c0 31 7 50 39 49 72-2 45-101 50-169h31l1 190h-30c-1-10 1-25-2-33-11 22-28 36-60 37" id="ap"/><path fill="#333" d="M87 75C49 33 22-17 22-94c0-76 28-126 65-167h31c-38 41-64 92-64 168S80 34 118 75H87" id="aq"/><path fill="#333" d="M33 0v-38h34V0H33" id="ar"/><path fill="#333" d="M33-261c38 41 65 92 65 168S71 34 33 75H2C39 34 66-17 66-93S39-220 2-261h31" id="as"/><g id="o"><use transform="matrix(0.05,0,0,0.05,0,0)" xlink:href="#ai"/><use transform="matrix(0.05,0,0,0.05,5.95,0)" xlink:href="#aj"/><use transform="matrix(0.05,0,0,0.05,15.949999999999998,0)" xlink:href="#ak"/><use transform="matrix(0.05,0,0,0.05,24.95,0)" xlink:href="#al"/><use transform="matrix(0.05,0,0,0.05,34.95,0)" xlink:href="#am"/><use transform="matrix(0.05,0,0,0.05,44.95,0)" xlink:href="#an"/><use transform="matrix(0.05,0,0,0.05,53.95,0)" xlink:href="#ao"/><use transform="matrix(0.05,0,0,0.05,58.95,0)" xlink:href="#ai"/><use transform="matrix(0.05,0,0,0.05,64.9,0)" xlink:href="#ap"/><use transform="matrix(0.05,0,0,0.05,74.9,0)" xlink:href="#ak"/><use transform="matrix(0.05,0,0,0.05,83.9,0)" xlink:href="#ao"/><use transform="matrix(0.05,0,0,0.05,88.9,0)" xlink:href="#aq"/><use transform="matrix(0.05,0,0,0.05,94.85000000000001,0)" xlink:href="#ar"/><use transform="matrix(0.05,0,0,0.05,99.85000000000001,0)" xlink:href="#ar"/><use transform="matrix(0.05,0,0,0.05,104.85000000000001,0)" xlink:href="#ar"/><use transform="matrix(0.05,0,0,0.05,109.85000000000001,0)" xlink:href="#as"/></g><path fill="#333" d="M30-248c87 1 191-15 191 75 0 78-77 80-158 76V0H30v-248zm33 125c57 0 124 11 124-50 0-59-68-47-124-48v98" id="at"/><g id="p"><use transform="matrix(0.05,0,0,0.05,0,0)" xlink:href="#ak"/><use transform="matrix(0.05,0,0,0.05,9,0)" xlink:href="#ap"/><use transform="matrix(0.05,0,0,0.05,19,0)" xlink:href="#ai"/><use transform="matrix(0.05,0,0,0.05,24.95,0)" xlink:href="#ai"/><use transform="matrix(0.05,0,0,0.05,30.899999999999995,0)" xlink:href="#aj"/><use transform="matrix(0.05,0,0,0.05,40.9,0)" xlink:href="#am"/><use transform="matrix(0.05,0,0,0.05,50.9,0)" xlink:href="#ao"/><use transform="matrix(0.05,0,0,0.05,55.900000000000006,0)" xlink:href="#at"/><use transform="matrix(0.05,0,0,0.05,67.9,0)" xlink:href="#al"/><use transform="matrix(0.05,0,0,0.05,77.9,0)" xlink:href="#an"/><use transform="matrix(0.05,0,0,0.05,86.9,0)" xlink:href="#aj"/></g><path fill="#333" d="M127-220V0H93v-220H8v-28h204v28h-85" id="au"/><path fill="#333" d="M141-36C126-15 110 5 73 4 37 3 15-17 15-53c-1-64 63-63 125-63 3-35-9-54-41-54-24 1-41 7-42 31l-33-3c5-37 33-52 76-52 45 0 72 20 72 64v82c-1 20 7 32 28 27v20c-31 9-61-2-59-35zM48-53c0 20 12 33 32 33 41-3 63-29 60-74-43 2-92-5-92 41" id="av"/><path fill="#333" d="M177-190C167-65 218 103 67 71c-23-6-38-20-44-43l32-5c15 47 100 32 89-28v-30C133-14 115 1 83 1 29 1 15-40 15-95c0-56 16-97 71-98 29-1 48 16 59 35 1-10 0-23 2-32h30zM94-22c36 0 50-32 50-73 0-42-14-75-50-75-39 0-46 34-46 75s6 73 46 73" id="aw"/><path fill="#333" d="M68-36c1 33-1 63-14 82H32c9-13 17-26 17-46H33v-36h35zM33-154v-36h35v36H33" id="ax"/><g id="q"><use transform="matrix(0.05,0,0,0.05,0,0)" xlink:href="#an"/><use transform="matrix(0.05,0,0,0.05,9,0)" xlink:href="#aj"/><use transform="matrix(0.05,0,0,0.05,19,0)" xlink:href="#ao"/><use transform="matrix(0.05,0,0,0.05,24,0)" xlink:href="#au"/><use transform="matrix(0.05,0,0,0.05,32.95,0)" xlink:href="#av"/><use transform="matrix(0.05,0,0,0.05,42.95,0)" xlink:href="#ai"/><use transform="matrix(0.05,0,0,0.05,48.900000000000006,0)" xlink:href="#aw"/><use transform="matrix(0.05,0,0,0.05,58.900000000000006,0)" xlink:href="#aj"/><use transform="matrix(0.05,0,0,0.05,68.9,0)" xlink:href="#ao"/><use transform="matrix(0.05,0,0,0.05,73.9,0)" xlink:href="#aq"/><use transform="matrix(0.05,0,0,0.05,79.85000000000001,0)" xlink:href="#ar"/><use transform="matrix(0.05,0,0,0.05,84.85000000000001,0)" xlink:href="#ar"/><use transform="matrix(0.05,0,0,0.05,89.85000000000001,0)" xlink:href="#ar"/><use transform="matrix(0.05,0,0,0.05,94.85000000000001,0)" xlink:href="#as"/><use transform="matrix(0.05,0,0,0.05,100.80000000000001,0)" xlink:href="#ax"/></g><path fill="#333" d="M185-189c-5-48-123-54-124 2 14 75 158 14 163 119 3 78-121 87-175 55-17-10-28-26-33-46l33-7c5 56 141 63 141-1 0-78-155-14-162-118-5-82 145-84 179-34 5 7 8 16 11 25" id="ay"/><g id="r"><use transform="matrix(0.05,0,0,0.05,0,0)" xlink:href="#an"/><use transform="matrix(0.05,0,0,0.05,9,0)" xlink:href="#aj"/><use transform="matrix(0.05,0,0,0.05,19,0)" xlink:href="#ao"/><use transform="matrix(0.05,0,0,0.05,24,0)" xlink:href="#ay"/><use transform="matrix(0.05,0,0,0.05,36,0)" xlink:href="#al"/><use transform="matrix(0.05,0,0,0.05,46,0)" xlink:href="#ap"/><use transform="matrix(0.05,0,0,0.05,56,0)" xlink:href="#ai"/><use transform="matrix(0.05,0,0,0.05,61.95,0)" xlink:href="#ak"/><use transform="matrix(0.05,0,0,0.05,70.95,0)" xlink:href="#aj"/><use transform="matrix(0.05,0,0,0.05,80.95,0)" xlink:href="#aq"/><use transform="matrix(0.05,0,0,0.05,86.9,0)" xlink:href="#ar"/><use transform="matrix(0.05,0,0,0.05,91.9,0)" xlink:href="#ar"/><use transform="matrix(0.05,0,0,0.05,96.9,0)" xlink:href="#ar"/><use transform="matrix(0.05,0,0,0.05,101.9,0)" xlink:href="#as"/></g><path fill="#333" d="M24-231v-30h32v30H24zM24 0v-190h32V0H24" id="az"/><path fill="#333" d="M210-169c-67 3-38 105-44 169h-31v-121c0-29-5-50-35-48C34-165 62-65 56 0H25l-1-190h30c1 10-1 24 2 32 10-44 99-50 107 0 11-21 27-35 58-36 85-2 47 119 55 194h-31v-121c0-29-5-49-35-48" id="aA"/><g id="s"><use transform="matrix(0.05,0,0,0.05,0,0)" xlink:href="#aj"/><use transform="matrix(0.05,0,0,0.05,10,0)" xlink:href="#an"/><use transform="matrix(0.05,0,0,0.05,19,0)" xlink:href="#ao"/><use transform="matrix(0.05,0,0,0.05,24,0)" xlink:href="#az"/><use transform="matrix(0.05,0,0,0.05,27.950000000000003,0)" xlink:href="#aA"/><use transform="matrix(0.05,0,0,0.05,42.9,0)" xlink:href="#av"/><use transform="matrix(0.05,0,0,0.05,52.900000000000006,0)" xlink:href="#ao"/><use transform="matrix(0.05,0,0,0.05,57.900000000000006,0)" xlink:href="#aj"/><use transform="matrix(0.05,0,0,0.05,67.9,0)" xlink:href="#at"/><use transform="matrix(0.05,0,0,0.05,79.9,0)" xlink:href="#al"/><use transform="matrix(0.05,0,0,0.05,89.9,0)" xlink:href="#an"/><use transform="matrix(0.05,0,0,0.05,98.9,0)" xlink:href="#aj"/><use transform="matrix(0.05,0,0,0.05,108.9,0)" xlink:href="#aq"/><use transform="matrix(0.05,0,0,0.05,114.85000000000001,0)" xlink:href="#ar"/><use transform="matrix(0.05,0,0,0.05,119.85000000000001,0)" xlink:href="#ar"/><use transform="matrix(0.05,0,0,0.05,124.85000000000001,0)" xlink:href="#ar"/><use transform="matrix(0.05,0,0,0.05,129.85000000000002,0)" xlink:href="#as"/></g><path fill="#333" d="M115-194c55 1 70 41 70 98S169 2 115 4C84 4 66-9 55-30l1 105H24l-1-265h31l2 30c10-21 28-34 59-34zm-8 174c40 0 45-34 45-75s-6-73-45-74c-42 0-51 32-51 76 0 43 10 73 51 73" id="aB"/><path fill="#333" d="M190 0L58-211 59 0H30v-248h39L202-35l-2-213h31V0h-41" id="aC"/><path fill="#333" d="M141 0L90-78 38 0H4l68-98-65-92h35l48 74 47-74h35l-64 92 68 98h-35" id="aD"/><path fill="#333" d="M63-220v92h138v28H63V0H30v-248h175v28H63" id="aE"/><g id="t"><use transform="matrix(0.05,0,0,0.05,0,0)" xlink:href="#aB"/><use transform="matrix(0.05,0,0,0.05,10,0)" xlink:href="#ai"/><use transform="matrix(0.05,0,0,0.05,15.949999999999998,0)" xlink:href="#aj"/><use transform="matrix(0.05,0,0,0.05,25.950000000000003,0)" xlink:href="#aB"/><use transform="matrix(0.05,0,0,0.05,35.95,0)" xlink:href="#av"/><use transform="matrix(0.05,0,0,0.05,45.95,0)" xlink:href="#ai"/><use transform="matrix(0.05,0,0,0.05,51.900000000000006,0)" xlink:href="#aj"/><use transform="matrix(0.05,0,0,0.05,61.900000000000006,0)" xlink:href="#aC"/><use transform="matrix(0.05,0,0,0.05,74.85000000000001,0)" xlink:href="#aj"/><use transform="matrix(0.05,0,0,0.05,84.85000000000001,0)" xlink:href="#aD"/><use transform="matrix(0.05,0,0,0.05,93.85000000000001,0)" xlink:href="#ao"/><use transform="matrix(0.05,0,0,0.05,98.85000000000001,0)" xlink:href="#aE"/><use transform="matrix(0.05,0,0,0.05,109.80000000000001,0)" xlink:href="#ai"/><use transform="matrix(0.05,0,0,0.05,115.75,0)" xlink:href="#av"/><use transform="matrix(0.05,0,0,0.05,125.75,0)" xlink:href="#aA"/><use transform="matrix(0.05,0,0,0.05,140.70000000000002,0)" xlink:href="#aj"/><use transform="matrix(0.05,0,0,0.05,150.70000000000002,0)" xlink:href="#aq"/><use transform="matrix(0.05,0,0,0.05,156.65,0)" xlink:href="#as"/></g><path fill="#333" d="M85-194c31 0 48 13 60 33l-1-100h32l1 261h-30c-2-10 0-23-3-31C134-8 116 4 85 4 32 4 16-35 15-94c0-66 23-100 70-100zm9 24c-40 0-46 34-46 75 0 40 6 74 45 74 42 0 51-32 51-76 0-42-9-74-50-73" id="aF"/><g id="u"><use transform="matrix(0.05,0,0,0.05,0,0)" xlink:href="#aB"/><use transform="matrix(0.05,0,0,0.05,10,0)" xlink:href="#ai"/><use transform="matrix(0.05,0,0,0.05,15.949999999999998,0)" xlink:href="#aj"/><use transform="matrix(0.05,0,0,0.05,25.950000000000003,0)" xlink:href="#aF"/><use transform="matrix(0.05,0,0,0.05,35.95,0)" xlink:href="#az"/><use transform="matrix(0.05,0,0,0.05,39.900000000000006,0)" xlink:href="#ak"/><use transform="matrix(0.05,0,0,0.05,48.900000000000006,0)" xlink:href="#ao"/><use transform="matrix(0.05,0,0,0.05,53.900000000000006,0)" xlink:href="#aq"/><use transform="matrix(0.05,0,0,0.05,59.85,0)" xlink:href="#ar"/><use transform="matrix(0.05,0,0,0.05,64.85000000000001,0)" xlink:href="#ar"/><use transform="matrix(0.05,0,0,0.05,69.85000000000001,0)" xlink:href="#ar"/><use transform="matrix(0.05,0,0,0.05,74.85000000000001,0)" xlink:href="#as"/></g><path fill="#333" d="M108 0H70L1-190h34L89-25l56-165h34" id="aG"/><g id="v"><use transform="matrix(0.05,0,0,0.05,0,0)" xlink:href="#aB"/><use transform="matrix(0.05,0,0,0.05,10,0)" xlink:href="#ai"/><use transform="matrix(0.05,0,0,0.05,15.949999999999998,0)" xlink:href="#aj"/><use transform="matrix(0.05,0,0,0.05,25.950000000000003,0)" xlink:href="#aG"/><use transform="matrix(0.05,0,0,0.05,34.95,0)" xlink:href="#aE"/><use transform="matrix(0.05,0,0,0.05,45.900000000000006,0)" xlink:href="#ai"/><use transform="matrix(0.05,0,0,0.05,51.85,0)" xlink:href="#av"/><use transform="matrix(0.05,0,0,0.05,61.85,0)" xlink:href="#aA"/><use transform="matrix(0.05,0,0,0.05,76.80000000000001,0)" xlink:href="#aj"/></g><g id="w"><use transform="matrix(0.05,0,0,0.05,0,0)" xlink:href="#ap"/><use transform="matrix(0.05,0,0,0.05,10,0)" xlink:href="#aB"/><use transform="matrix(0.05,0,0,0.05,20,0)" xlink:href="#aF"/><use transform="matrix(0.05,0,0,0.05,30,0)" xlink:href="#av"/><use transform="matrix(0.05,0,0,0.05,40,0)" xlink:href="#ao"/><use transform="matrix(0.05,0,0,0.05,45,0)" xlink:href="#aj"/></g><path fill="#333" d="M101-234c-31-9-42 10-38 44h38v23H63V0H32v-167H5v-23h27c-7-52 17-82 69-68v24" id="aH"/><g id="x"><use transform="matrix(0.05,0,0,0.05,0,0)" xlink:href="#ao"/><use transform="matrix(0.05,0,0,0.05,5,0)" xlink:href="#an"/><use transform="matrix(0.05,0,0,0.05,14,0)" xlink:href="#aF"/><use transform="matrix(0.05,0,0,0.05,24,0)" xlink:href="#aH"/></g><path fill="#333" d="M30 0v-248h33v221h125V0H30" id="aI"/><g id="y"><use transform="matrix(0.05,0,0,0.05,0,0)" xlink:href="#aI"/><use transform="matrix(0.05,0,0,0.05,10,0)" xlink:href="#al"/><use transform="matrix(0.05,0,0,0.05,20,0)" xlink:href="#al"/><use transform="matrix(0.05,0,0,0.05,30,0)" xlink:href="#aB"/></g><path fill="#333" d="M26 75v-336h71v23H56V52h41v23H26" id="aJ"/><path fill="#333" d="M206 0h-36l-40-164L89 0H53L-1-190h32L70-26l43-164h34l41 164 42-164h31" id="aK"/><path fill="#333" d="M106-169C34-169 62-67 57 0H25v-261h32l-1 103c12-21 28-36 61-36 89 0 53 116 60 194h-32v-121c2-32-8-49-39-48" id="aL"/><path fill="#333" d="M24 0v-261h32V0H24" id="aM"/><g id="z"><use transform="matrix(0.05,0,0,0.05,0,0)" xlink:href="#aJ"/><use transform="matrix(0.05,0,0,0.05,5,0)" xlink:href="#aK"/><use transform="matrix(0.05,0,0,0.05,17.950000000000003,0)" xlink:href="#aL"/><use transform="matrix(0.05,0,0,0.05,27.950000000000003,0)" xlink:href="#az"/><use transform="matrix(0.05,0,0,0.05,31.900000000000002,0)" xlink:href="#aM"/><use transform="matrix(0.05,0,0,0.05,35.85,0)" xlink:href="#aj"/></g><g id="A"><use transform="matrix(0.05,0,0,0.05,0,0)" xlink:href="#aA"/><use transform="matrix(0.05,0,0,0.05,14.950000000000001,0)" xlink:href="#al"/><use transform="matrix(0.05,0,0,0.05,24.950000000000003,0)" xlink:href="#ai"/><use transform="matrix(0.05,0,0,0.05,30.900000000000002,0)" xlink:href="#aj"/></g><path fill="#333" d="M3 75V52h41v-290H3v-23h71V75H3" id="aN"/><g id="B"><use transform="matrix(0.05,0,0,0.05,0,0)" xlink:href="#aH"/><use transform="matrix(0.05,0,0,0.05,5,0)" xlink:href="#ai"/><use transform="matrix(0.05,0,0,0.05,10.95,0)" xlink:href="#av"/><use transform="matrix(0.05,0,0,0.05,20.95,0)" xlink:href="#aA"/><use transform="matrix(0.05,0,0,0.05,35.9,0)" xlink:href="#aj"/><use transform="matrix(0.05,0,0,0.05,45.9,0)" xlink:href="#an"/><use transform="matrix(0.05,0,0,0.05,54.900000000000006,0)" xlink:href="#aN"/></g><path fill="#333" d="M33 0v-248h34V0H33" id="aO"/><path fill="#333" d="M9 0v-24l116-142H16v-24h144v24L44-24h123V0H9" id="aP"/><g id="C"><use transform="matrix(0.05,0,0,0.05,0,0)" xlink:href="#aO"/><use transform="matrix(0.05,0,0,0.05,5,0)" xlink:href="#am"/><use transform="matrix(0.05,0,0,0.05,15,0)" xlink:href="#az"/><use transform="matrix(0.05,0,0,0.05,18.95,0)" xlink:href="#ao"/><use transform="matrix(0.05,0,0,0.05,23.95,0)" xlink:href="#az"/><use transform="matrix(0.05,0,0,0.05,27.899999999999995,0)" xlink:href="#av"/><use transform="matrix(0.05,0,0,0.05,37.9,0)" xlink:href="#aM"/><use transform="matrix(0.05,0,0,0.05,41.85,0)" xlink:href="#az"/><use transform="matrix(0.05,0,0,0.05,45.800000000000004,0)" xlink:href="#aP"/><use transform="matrix(0.05,0,0,0.05,54.800000000000004,0)" xlink:href="#av"/><use transform="matrix(0.05,0,0,0.05,64.80000000000001,0)" xlink:href="#ao"/><use transform="matrix(0.05,0,0,0.05,69.80000000000001,0)" xlink:href="#az"/><use transform="matrix(0.05,0,0,0.05,73.75000000000001,0)" xlink:href="#al"/><use transform="matrix(0.05,0,0,0.05,83.75000000000001,0)" xlink:href="#am"/></g><g id="D"><use transform="matrix(0.05,0,0,0.05,0,0)" xlink:href="#ak"/><use transform="matrix(0.05,0,0,0.05,9,0)" xlink:href="#ai"/><use transform="matrix(0.05,0,0,0.05,14.949999999999998,0)" xlink:href="#aj"/><use transform="matrix(0.05,0,0,0.05,24.95,0)" xlink:href="#av"/><use transform="matrix(0.05,0,0,0.05,34.95,0)" xlink:href="#ao"/><use transform="matrix(0.05,0,0,0.05,39.95,0)" xlink:href="#aj"/></g><g id="E"><use transform="matrix(0.05,0,0,0.05,0,0)" xlink:href="#aB"/><use transform="matrix(0.05,0,0,0.05,10,0)" xlink:href="#ai"/><use transform="matrix(0.05,0,0,0.05,15.949999999999998,0)" xlink:href="#aj"/><use transform="matrix(0.05,0,0,0.05,25.950000000000003,0)" xlink:href="#aF"/><use transform="matrix(0.05,0,0,0.05,35.95,0)" xlink:href="#az"/><use transform="matrix(0.05,0,0,0.05,39.900000000000006,0)" xlink:href="#ak"/><use transform="matrix(0.05,0,0,0.05,48.900000000000006,0)" xlink:href="#ao"/></g><g id="F"><use transform="matrix(0.05,0,0,0.05,0,0)" xlink:href="#aB"/><use transform="matrix(0.05,0,0,0.05,10,0)" xlink:href="#ai"/><use transform="matrix(0.05,0,0,0.05,15.949999999999998,0)" xlink:href="#aj"/><use transform="matrix(0.05,0,0,0.05,25.950000000000003,0)" xlink:href="#aG"/><use transform="matrix(0.05,0,0,0.05,34.95,0)" xlink:href="#az"/><use transform="matrix(0.05,0,0,0.05,38.900000000000006,0)" xlink:href="#al"/><use transform="matrix(0.05,0,0,0.05,48.900000000000006,0)" xlink:href="#ap"/><use transform="matrix(0.05,0,0,0.05,58.900000000000006,0)" xlink:href="#an"/></g><g id="G"><use transform="matrix(0.05,0,0,0.05,0,0)" xlink:href="#aH"/><use transform="matrix(0.05,0,0,0.05,5,0)" xlink:href="#ai"/><use transform="matrix(0.05,0,0,0.05,10.95,0)" xlink:href="#av"/><use transform="matrix(0.05,0,0,0.05,20.95,0)" xlink:href="#aA"/><use transform="matrix(0.05,0,0,0.05,35.9,0)" xlink:href="#aj"/></g><g id="H"><use transform="matrix(0.05,0,0,0.05,0,0)" xlink:href="#aH"/><use transform="matrix(0.05,0,0,0.05,5,0)" xlink:href="#ai"/><use transform="matrix(0.05,0,0,0.05,10.95,0)" xlink:href="#al"/><use transform="matrix(0.05,0,0,0.05,20.95,0)" xlink:href="#aA"/></g><path fill="#c92d39" d="M50-231l6-30h32l-6 30H50zM6 0l37-190h31L37 0H6" id="aQ"/><path fill="#c92d39" d="M67-158c22-48 132-52 116 29L158 0h-32l25-140c3-38-53-32-70-12C52-117 51-52 38 0H6l36-190h30" id="aR"/><g id="I"><use transform="matrix(0.05,0,0,0.05,0,0)" xlink:href="#aQ"/><use transform="matrix(0.05,0,0,0.05,3.95,0)" xlink:href="#aR"/></g><path fill="#c92d39" d="M67-162c32-53 139-36 121 50C175-51 163 2 97 4 68 4 52-11 42-31 38 6 28 39 22 75H-9l50-265h29c-1 10 0 20-3 28zm89 36c0-26-10-43-35-43-54 0-67 50-69 103-1 29 14 45 42 46 53 0 62-58 62-106" id="aS"/><path fill="#c92d39" d="M165-48c-4 18 1 34 23 27l-3 20c-29 8-62 0-52-35h-2C116-14 99 4 63 4 30 4 8-16 8-49c0-68 71-67 138-67 10-26 0-56-31-54-26 1-42 9-47 31l-32-5c8-67 160-71 144 15-5 28-9 54-15 81zM42-50c3 52 80 24 89-6 7-12 7-24 11-38-47 1-103-4-100 44" id="aT"/><path fill="#c92d39" d="M66-151c12-25 30-51 66-40l-6 26C45-176 58-65 38 0H6l36-190h30" id="aU"/><path fill="#c92d39" d="M6 0l50-261h32L37 0H6" id="aV"/><path fill="#c92d39" d="M111-194c62-3 86 47 72 106H45c-7 38 6 69 45 68 27-1 43-14 53-32l24 11C152-15 129 4 87 4 38 3 12-23 12-71c0-70 32-119 99-123zm44 81c14-66-71-72-95-28-4 8-8 17-11 28h106" id="aW"/><g id="J"><use transform="matrix(0.05,0,0,0.05,0,0)" xlink:href="#aS"/><use transform="matrix(0.05,0,0,0.05,10,0)" xlink:href="#aT"/><use transform="matrix(0.05,0,0,0.05,20,0)" xlink:href="#aU"/><use transform="matrix(0.05,0,0,0.05,25.950000000000003,0)" xlink:href="#aT"/><use transform="matrix(0.05,0,0,0.05,35.95,0)" xlink:href="#aV"/><use transform="matrix(0.05,0,0,0.05,39.900000000000006,0)" xlink:href="#aV"/><use transform="matrix(0.05,0,0,0.05,43.85000000000001,0)" xlink:href="#aW"/><use transform="matrix(0.05,0,0,0.05,53.85,0)" xlink:href="#aV"/></g></defs></g></svg>